<mxfile host="app.diagrams.net" agent="Mozilla/5.0 (Windows NT 10.0; Win64; x64) AppleWebKit/537.36 (KHTML, like Gecko) Chrome/133.0.0.0 Safari/537.36" version="24.7.7">
  <diagram name="Page-1" id="929967ad-93f9-6ef4-fab6-5d389245f69c">
    <mxGraphModel dx="1938" dy="1056" grid="1" gridSize="10" guides="1" tooltips="1" connect="1" arrows="1" fold="1" page="1" pageScale="1.5" pageWidth="1169" pageHeight="826" background="none" math="0" shadow="0">
      <root>
        <mxCell id="0" style=";html=1;" />
        <mxCell id="1" style=";html=1;" parent="0" />
        <mxCell id="1672d66443f91eb5-23" value="&lt;font style=&quot;font-size: 30px;&quot;&gt;Liver Design&lt;/font&gt;" style="text;strokeColor=none;fillColor=none;html=1;fontSize=24;fontStyle=1;verticalAlign=middle;align=center;" parent="1" vertex="1">
          <mxGeometry x="120" y="40" width="1510" height="110" as="geometry" />
        </mxCell>
        <mxCell id="9IOt9APh3hDE5E4Hf7Pu-9" value="" style="group" vertex="1" connectable="0" parent="1">
          <mxGeometry y="281" width="350" height="230" as="geometry" />
        </mxCell>
        <mxCell id="9IOt9APh3hDE5E4Hf7Pu-1" value="&lt;div&gt;&lt;br&gt;&lt;/div&gt;" style="shape=folder;fontStyle=1;spacingTop=10;tabWidth=130;tabHeight=50;tabPosition=left;html=1;whiteSpace=wrap;" vertex="1" parent="9IOt9APh3hDE5E4Hf7Pu-9">
          <mxGeometry width="350" height="230" as="geometry" />
        </mxCell>
        <mxCell id="9IOt9APh3hDE5E4Hf7Pu-2" value="LiverExe" style="text;align=center;fontStyle=1;verticalAlign=middle;spacingLeft=3;spacingRight=3;strokeColor=none;rotatable=0;points=[[0,0.5],[1,0.5]];portConstraint=eastwest;html=1;" vertex="1" parent="9IOt9APh3hDE5E4Hf7Pu-9">
          <mxGeometry x="20" y="10" width="90" height="26" as="geometry" />
        </mxCell>
        <mxCell id="9IOt9APh3hDE5E4Hf7Pu-3" value="- package Liver in an exceutable format (.exe)&lt;div&gt;- wWinMain calling LiverLib&lt;/div&gt;" style="text;align=left;fontStyle=1;verticalAlign=middle;spacingLeft=3;spacingRight=3;strokeColor=none;rotatable=0;points=[[0,0.5],[1,0.5]];portConstraint=eastwest;html=1;" vertex="1" parent="9IOt9APh3hDE5E4Hf7Pu-9">
          <mxGeometry x="20" y="70" width="270" height="40" as="geometry" />
        </mxCell>
        <mxCell id="9IOt9APh3hDE5E4Hf7Pu-5" value="Main.cpp" style="swimlane;fontStyle=1;align=center;verticalAlign=top;childLayout=stackLayout;horizontal=1;startSize=26;horizontalStack=0;resizeParent=1;resizeParentMax=0;resizeLast=0;collapsible=1;marginBottom=0;whiteSpace=wrap;html=1;" vertex="1" parent="9IOt9APh3hDE5E4Hf7Pu-9">
          <mxGeometry x="95" y="130" width="160" height="52" as="geometry" />
        </mxCell>
        <mxCell id="9IOt9APh3hDE5E4Hf7Pu-8" value="+ APIENTRY wWinMain(...)" style="text;strokeColor=none;fillColor=none;align=left;verticalAlign=top;spacingLeft=4;spacingRight=4;overflow=hidden;rotatable=0;points=[[0,0.5],[1,0.5]];portConstraint=eastwest;whiteSpace=wrap;html=1;" vertex="1" parent="9IOt9APh3hDE5E4Hf7Pu-5">
          <mxGeometry y="26" width="160" height="26" as="geometry" />
        </mxCell>
        <mxCell id="9IOt9APh3hDE5E4Hf7Pu-10" value="" style="group" vertex="1" connectable="0" parent="1">
          <mxGeometry y="561" width="350" height="230" as="geometry" />
        </mxCell>
        <mxCell id="9IOt9APh3hDE5E4Hf7Pu-11" value="&lt;div&gt;&lt;br&gt;&lt;/div&gt;" style="shape=folder;fontStyle=1;spacingTop=10;tabWidth=130;tabHeight=50;tabPosition=left;html=1;whiteSpace=wrap;" vertex="1" parent="9IOt9APh3hDE5E4Hf7Pu-10">
          <mxGeometry width="350" height="230" as="geometry" />
        </mxCell>
        <mxCell id="9IOt9APh3hDE5E4Hf7Pu-12" value="LiverDll" style="text;align=center;fontStyle=1;verticalAlign=middle;spacingLeft=3;spacingRight=3;strokeColor=none;rotatable=0;points=[[0,0.5],[1,0.5]];portConstraint=eastwest;html=1;" vertex="1" parent="9IOt9APh3hDE5E4Hf7Pu-10">
          <mxGeometry x="20" y="10" width="90" height="26" as="geometry" />
        </mxCell>
        <mxCell id="9IOt9APh3hDE5E4Hf7Pu-13" value="- package Liver in a dll format (.dll)&lt;div&gt;-DllMain starting a worker calling LiverLib&lt;/div&gt;" style="text;align=left;fontStyle=1;verticalAlign=middle;spacingLeft=3;spacingRight=3;strokeColor=none;rotatable=0;points=[[0,0.5],[1,0.5]];portConstraint=eastwest;html=1;" vertex="1" parent="9IOt9APh3hDE5E4Hf7Pu-10">
          <mxGeometry x="20" y="70" width="270" height="40" as="geometry" />
        </mxCell>
        <mxCell id="9IOt9APh3hDE5E4Hf7Pu-14" value="Main.cpp" style="swimlane;fontStyle=1;align=center;verticalAlign=top;childLayout=stackLayout;horizontal=1;startSize=26;horizontalStack=0;resizeParent=1;resizeParentMax=0;resizeLast=0;collapsible=1;marginBottom=0;whiteSpace=wrap;html=1;" vertex="1" parent="9IOt9APh3hDE5E4Hf7Pu-10">
          <mxGeometry x="10" y="130" width="160" height="52" as="geometry" />
        </mxCell>
        <mxCell id="9IOt9APh3hDE5E4Hf7Pu-15" value="+ APIENTRY DllMain(...)" style="text;strokeColor=none;fillColor=none;align=left;verticalAlign=top;spacingLeft=4;spacingRight=4;overflow=hidden;rotatable=0;points=[[0,0.5],[1,0.5]];portConstraint=eastwest;whiteSpace=wrap;html=1;" vertex="1" parent="9IOt9APh3hDE5E4Hf7Pu-14">
          <mxGeometry y="26" width="160" height="26" as="geometry" />
        </mxCell>
        <mxCell id="9IOt9APh3hDE5E4Hf7Pu-17" value="LiverRunner : IRunner" style="swimlane;fontStyle=1;align=center;verticalAlign=top;childLayout=stackLayout;horizontal=1;startSize=26;horizontalStack=0;resizeParent=1;resizeParentMax=0;resizeLast=0;collapsible=1;marginBottom=0;whiteSpace=wrap;html=1;" vertex="1" parent="9IOt9APh3hDE5E4Hf7Pu-10">
          <mxGeometry x="180" y="130" width="160" height="52" as="geometry" />
        </mxCell>
        <mxCell id="9IOt9APh3hDE5E4Hf7Pu-18" value="+ run()" style="text;strokeColor=none;fillColor=none;align=left;verticalAlign=top;spacingLeft=4;spacingRight=4;overflow=hidden;rotatable=0;points=[[0,0.5],[1,0.5]];portConstraint=eastwest;whiteSpace=wrap;html=1;" vertex="1" parent="9IOt9APh3hDE5E4Hf7Pu-17">
          <mxGeometry y="26" width="160" height="26" as="geometry" />
        </mxCell>
        <mxCell id="9IOt9APh3hDE5E4Hf7Pu-19" value="" style="group" vertex="1" connectable="0" parent="1">
          <mxGeometry x="440" y="200" width="1080" height="870" as="geometry" />
        </mxCell>
        <mxCell id="9IOt9APh3hDE5E4Hf7Pu-20" value="&lt;div&gt;&lt;br&gt;&lt;/div&gt;" style="shape=folder;fontStyle=1;spacingTop=10;tabWidth=130;tabHeight=50;tabPosition=left;html=1;whiteSpace=wrap;" vertex="1" parent="9IOt9APh3hDE5E4Hf7Pu-19">
          <mxGeometry width="1080" height="870" as="geometry" />
        </mxCell>
        <mxCell id="9IOt9APh3hDE5E4Hf7Pu-21" value="LiverLib" style="text;align=center;fontStyle=1;verticalAlign=middle;spacingLeft=3;spacingRight=3;strokeColor=none;rotatable=0;points=[[0,0.5],[1,0.5]];portConstraint=eastwest;html=1;" vertex="1" parent="9IOt9APh3hDE5E4Hf7Pu-19">
          <mxGeometry width="130" height="50" as="geometry" />
        </mxCell>
        <mxCell id="9IOt9APh3hDE5E4Hf7Pu-22" value="- contains the actual logic for the Liver&lt;div&gt;- not a runnable project&lt;/div&gt;" style="text;align=left;fontStyle=1;verticalAlign=middle;spacingLeft=3;spacingRight=3;strokeColor=none;rotatable=0;points=[[0,0.5],[1,0.5]];portConstraint=eastwest;html=1;" vertex="1" parent="9IOt9APh3hDE5E4Hf7Pu-19">
          <mxGeometry x="13" y="60" width="247" height="50" as="geometry" />
        </mxCell>
        <mxCell id="9IOt9APh3hDE5E4Hf7Pu-25" value="&lt;p style=&quot;margin:0px;margin-top:4px;text-align:center;&quot;&gt;&lt;i&gt;&amp;lt;&amp;lt;Interface&amp;gt;&amp;gt;&lt;/i&gt;&lt;br&gt;&lt;b&gt;ICommandFactory&lt;/b&gt;&lt;/p&gt;&lt;hr size=&quot;1&quot; style=&quot;border-style:solid;&quot;&gt;&lt;p style=&quot;margin:0px;margin-left:4px;&quot;&gt;+ ICommandPtr make(Buffer)&lt;br&gt;&lt;/p&gt;" style="verticalAlign=top;align=left;overflow=fill;html=1;whiteSpace=wrap;" vertex="1" parent="9IOt9APh3hDE5E4Hf7Pu-19">
          <mxGeometry x="860" y="71" width="190" height="69" as="geometry" />
        </mxCell>
        <mxCell id="9IOt9APh3hDE5E4Hf7Pu-26" value="&lt;p style=&quot;margin:0px;margin-top:4px;text-align:center;&quot;&gt;&lt;i&gt;&amp;lt;&amp;lt;Interface&amp;gt;&amp;gt;&lt;/i&gt;&lt;br&gt;&lt;b&gt;ICommand&lt;/b&gt;&lt;/p&gt;&lt;hr size=&quot;1&quot; style=&quot;border-style:solid;&quot;&gt;&lt;p style=&quot;margin:0px;margin-left:4px;&quot;&gt;+ virtual CommandType type() = 0&lt;br&gt;&lt;/p&gt;" style="verticalAlign=top;align=left;overflow=fill;html=1;whiteSpace=wrap;" vertex="1" parent="9IOt9APh3hDE5E4Hf7Pu-19">
          <mxGeometry x="860" y="180" width="190" height="70" as="geometry" />
        </mxCell>
        <mxCell id="9IOt9APh3hDE5E4Hf7Pu-28" value="return" style="html=1;verticalAlign=bottom;endArrow=open;dashed=1;endSize=8;curved=0;rounded=0;fontSize=12;exitX=0.5;exitY=1;exitDx=0;exitDy=0;entryX=0.5;entryY=0;entryDx=0;entryDy=0;" edge="1" parent="9IOt9APh3hDE5E4Hf7Pu-19" source="9IOt9APh3hDE5E4Hf7Pu-25" target="9IOt9APh3hDE5E4Hf7Pu-26">
          <mxGeometry x="0.3333" relative="1" as="geometry">
            <mxPoint x="770" y="220" as="sourcePoint" />
            <mxPoint x="690" y="220" as="targetPoint" />
            <mxPoint as="offset" />
          </mxGeometry>
        </mxCell>
        <mxCell id="9IOt9APh3hDE5E4Hf7Pu-29" value="CommandHandlerFactory" style="swimlane;fontStyle=0;childLayout=stackLayout;horizontal=1;startSize=26;fillColor=none;horizontalStack=0;resizeParent=1;resizeParentMax=0;resizeLast=0;collapsible=1;marginBottom=0;whiteSpace=wrap;html=1;" vertex="1" parent="9IOt9APh3hDE5E4Hf7Pu-19">
          <mxGeometry x="667" y="340" width="290" height="52" as="geometry" />
        </mxCell>
        <mxCell id="9IOt9APh3hDE5E4Hf7Pu-32" value="+ static ICommandHandlerPtr make(ICommandPtr)" style="text;strokeColor=none;fillColor=none;align=left;verticalAlign=top;spacingLeft=4;spacingRight=4;overflow=hidden;rotatable=0;points=[[0,0.5],[1,0.5]];portConstraint=eastwest;whiteSpace=wrap;html=1;" vertex="1" parent="9IOt9APh3hDE5E4Hf7Pu-29">
          <mxGeometry y="26" width="290" height="26" as="geometry" />
        </mxCell>
        <mxCell id="9IOt9APh3hDE5E4Hf7Pu-35" value="&lt;p style=&quot;margin:0px;margin-top:4px;text-align:center;&quot;&gt;&lt;i&gt;&amp;lt;&amp;lt;Interface&amp;gt;&amp;gt;&lt;/i&gt;&lt;br&gt;&lt;b&gt;ICommandHandler&lt;/b&gt;&lt;/p&gt;&lt;hr size=&quot;1&quot; style=&quot;border-style:solid;&quot;&gt;&lt;p style=&quot;margin:0px;margin-left:4px;&quot;&gt;# _command: ICommandPtr&lt;/p&gt;&lt;hr size=&quot;1&quot; style=&quot;border-style:solid;&quot;&gt;&lt;p style=&quot;margin:0px;margin-left:4px;&quot;&gt;+ virtual IProductPtr handle(Context?) = 0&lt;br&gt;&lt;/p&gt;" style="verticalAlign=top;align=left;overflow=fill;html=1;whiteSpace=wrap;" vertex="1" parent="9IOt9APh3hDE5E4Hf7Pu-19">
          <mxGeometry x="567" y="180" width="230" height="99" as="geometry" />
        </mxCell>
        <mxCell id="9IOt9APh3hDE5E4Hf7Pu-36" value="Use" style="endArrow=open;endSize=12;dashed=1;html=1;rounded=0;fontSize=12;entryX=0.5;entryY=1;entryDx=0;entryDy=0;strokeColor=default;edgeStyle=orthogonalEdgeStyle;" edge="1" parent="9IOt9APh3hDE5E4Hf7Pu-19" source="9IOt9APh3hDE5E4Hf7Pu-29" target="9IOt9APh3hDE5E4Hf7Pu-26">
          <mxGeometry width="160" relative="1" as="geometry">
            <mxPoint x="480" y="320" as="sourcePoint" />
            <mxPoint x="640" y="320" as="targetPoint" />
            <Array as="points">
              <mxPoint x="812" y="310" />
              <mxPoint x="955" y="310" />
            </Array>
          </mxGeometry>
        </mxCell>
        <mxCell id="9IOt9APh3hDE5E4Hf7Pu-39" value="return" style="html=1;verticalAlign=bottom;endArrow=open;dashed=1;endSize=8;rounded=0;fontSize=12;entryX=0.5;entryY=1;entryDx=0;entryDy=0;edgeStyle=orthogonalEdgeStyle;" edge="1" parent="9IOt9APh3hDE5E4Hf7Pu-19" source="9IOt9APh3hDE5E4Hf7Pu-29" target="9IOt9APh3hDE5E4Hf7Pu-35">
          <mxGeometry x="-0.0001" relative="1" as="geometry">
            <mxPoint x="620" y="330" as="sourcePoint" />
            <mxPoint x="540" y="330" as="targetPoint" />
            <mxPoint as="offset" />
          </mxGeometry>
        </mxCell>
        <mxCell id="9IOt9APh3hDE5E4Hf7Pu-40" value="Use" style="endArrow=open;endSize=12;dashed=1;html=1;rounded=0;fontSize=12;edgeStyle=orthogonalEdgeStyle;" edge="1" parent="9IOt9APh3hDE5E4Hf7Pu-19" source="9IOt9APh3hDE5E4Hf7Pu-35" target="9IOt9APh3hDE5E4Hf7Pu-26">
          <mxGeometry width="160" relative="1" as="geometry">
            <mxPoint x="470" y="320" as="sourcePoint" />
            <mxPoint x="630" y="320" as="targetPoint" />
          </mxGeometry>
        </mxCell>
        <mxCell id="9IOt9APh3hDE5E4Hf7Pu-42" value="&lt;p style=&quot;margin:0px;margin-top:4px;text-align:center;&quot;&gt;&lt;i&gt;&amp;lt;&amp;lt;Interface&amp;gt;&amp;gt;&lt;/i&gt;&lt;br&gt;&lt;b&gt;IProduct : ISerializable&lt;/b&gt;&lt;/p&gt;&lt;hr size=&quot;1&quot; style=&quot;border-style:solid;&quot;&gt;&lt;p style=&quot;margin:0px;margin-left:4px;&quot;&gt;- _product_id: ProductId&lt;br&gt;&lt;/p&gt;&lt;p style=&quot;margin:0px;margin-left:4px;&quot;&gt;- _command_id: CommandId&lt;/p&gt;&lt;hr size=&quot;1&quot; style=&quot;border-style:solid;&quot;&gt;&lt;p style=&quot;margin: 0px 0px 0px 4px;&quot;&gt;+ virtual Buffer serialize() = 0&lt;br&gt;+ ProductId product_id()&lt;/p&gt;&lt;p style=&quot;margin: 0px 0px 0px 4px;&quot;&gt;+ CommandId command_id()&lt;/p&gt;" style="verticalAlign=top;align=left;overflow=fill;html=1;whiteSpace=wrap;" vertex="1" parent="9IOt9APh3hDE5E4Hf7Pu-19">
          <mxGeometry x="270" y="159.5" width="190" height="140" as="geometry" />
        </mxCell>
        <mxCell id="9IOt9APh3hDE5E4Hf7Pu-43" value="return" style="html=1;verticalAlign=bottom;endArrow=open;dashed=1;endSize=8;curved=0;rounded=0;fontSize=12;exitX=0;exitY=0.5;exitDx=0;exitDy=0;" edge="1" parent="9IOt9APh3hDE5E4Hf7Pu-19" source="9IOt9APh3hDE5E4Hf7Pu-35" target="9IOt9APh3hDE5E4Hf7Pu-42">
          <mxGeometry relative="1" as="geometry">
            <mxPoint x="470" y="380" as="sourcePoint" />
            <mxPoint x="390" y="380" as="targetPoint" />
          </mxGeometry>
        </mxCell>
        <mxCell id="9IOt9APh3hDE5E4Hf7Pu-44" value="&lt;p style=&quot;margin:0px;margin-top:4px;text-align:center;&quot;&gt;&lt;b&gt;Liver &lt;font face=&quot;Times New Roman&quot;&gt;// God Class&lt;/font&gt;&lt;/b&gt;&lt;/p&gt;&lt;hr size=&quot;1&quot; style=&quot;border-style:solid;&quot;&gt;&lt;p style=&quot;margin:0px;margin-left:4px;&quot;&gt;- _quit_event: EventPtr&lt;/p&gt;&lt;p style=&quot;margin:0px;margin-left:4px;&quot;&gt;- _libraries: LibrariesContainer&lt;/p&gt;&lt;p style=&quot;margin:0px;margin-left:4px;&quot;&gt;- _figs: FigsContainer&lt;/p&gt;&lt;p style=&quot;margin:0px;margin-left:4px;&quot;&gt;- _products_storage: IProductsStoragePtr&lt;/p&gt;&lt;p style=&quot;margin:0px;margin-left:4px;&quot;&gt;- _storage: IStoragePtr&lt;/p&gt;&lt;p style=&quot;margin:0px;margin-left:4px;&quot;&gt;- _command_factory: ICommandFactoryPtr&lt;/p&gt;&lt;hr size=&quot;1&quot; style=&quot;border-style:solid;&quot;&gt;&lt;p style=&quot;margin:0px;margin-left:4px;&quot;&gt;+&amp;nbsp;&lt;span style=&quot;background-color: initial;&quot;&gt;[[noreturn]]&amp;nbsp;&lt;/span&gt;&lt;span style=&quot;background-color: initial;&quot;&gt;static void main(Buffer configuration)&lt;/span&gt;&lt;/p&gt;&lt;p style=&quot;margin:0px;margin-left:4px;&quot;&gt;- static LiverPtr create(Buffer configuration)&lt;/p&gt;&lt;p style=&quot;margin:0px;margin-left:4px;&quot;&gt;- [[noreturn]] void run()&lt;/p&gt;" style="verticalAlign=top;align=left;overflow=fill;html=1;whiteSpace=wrap;" vertex="1" parent="9IOt9APh3hDE5E4Hf7Pu-19">
          <mxGeometry x="57" y="330" width="413" height="190" as="geometry" />
        </mxCell>
        <mxCell id="9IOt9APh3hDE5E4Hf7Pu-45" value="&lt;p style=&quot;margin:0px;margin-top:4px;text-align:center;&quot;&gt;&lt;i&gt;&amp;lt;&amp;lt;Interface&amp;gt;&amp;gt;&lt;/i&gt;&lt;br&gt;&lt;b&gt;IStorage&lt;/b&gt;&lt;/p&gt;&lt;hr size=&quot;1&quot; style=&quot;border-style:solid;&quot;&gt;&lt;p style=&quot;margin:0px;margin-left:4px;&quot;&gt;+ virtual void store(String, Buffer) = 0&lt;br&gt;+ virtual Buffer get(String) = 0&lt;/p&gt;&lt;p style=&quot;margin:0px;margin-left:4px;&quot;&gt;+ virtual Buffer pop(String) = 0&lt;/p&gt;" style="verticalAlign=top;align=left;overflow=fill;html=1;whiteSpace=wrap;" vertex="1" parent="9IOt9APh3hDE5E4Hf7Pu-19">
          <mxGeometry x="710" y="460" width="210" height="140" as="geometry" />
        </mxCell>
        <mxCell id="9IOt9APh3hDE5E4Hf7Pu-46" value="Use" style="endArrow=open;endSize=12;dashed=1;html=1;rounded=0;fontSize=12;exitX=1;exitY=0.5;exitDx=0;exitDy=0;entryX=0.528;entryY=0.013;entryDx=0;entryDy=0;entryPerimeter=0;edgeStyle=orthogonalEdgeStyle;" edge="1" parent="9IOt9APh3hDE5E4Hf7Pu-19" source="9IOt9APh3hDE5E4Hf7Pu-44" target="9IOt9APh3hDE5E4Hf7Pu-45">
          <mxGeometry width="160" relative="1" as="geometry">
            <mxPoint x="370" y="600" as="sourcePoint" />
            <mxPoint x="530" y="600" as="targetPoint" />
            <Array as="points">
              <mxPoint x="810" y="415" />
              <mxPoint x="810" y="462" />
            </Array>
          </mxGeometry>
        </mxCell>
        <mxCell id="9IOt9APh3hDE5E4Hf7Pu-47" value="FileBackedStorage: IStorage" style="swimlane;fontStyle=0;childLayout=stackLayout;horizontal=1;startSize=26;fillColor=none;horizontalStack=0;resizeParent=1;resizeParentMax=0;resizeLast=0;collapsible=1;marginBottom=0;whiteSpace=wrap;html=1;" vertex="1" parent="9IOt9APh3hDE5E4Hf7Pu-19">
          <mxGeometry x="639" y="641" width="170" height="40" as="geometry" />
        </mxCell>
        <mxCell id="9IOt9APh3hDE5E4Hf7Pu-51" value="MemoryBackedStorage: IStorage" style="swimlane;fontStyle=0;childLayout=stackLayout;horizontal=1;startSize=26;fillColor=none;horizontalStack=0;resizeParent=1;resizeParentMax=0;resizeLast=0;collapsible=1;marginBottom=0;whiteSpace=wrap;html=1;" vertex="1" parent="9IOt9APh3hDE5E4Hf7Pu-19">
          <mxGeometry x="829" y="641" width="190" height="40" as="geometry" />
        </mxCell>
        <mxCell id="9IOt9APh3hDE5E4Hf7Pu-52" value="" style="endArrow=block;dashed=1;endFill=0;endSize=12;html=1;rounded=0;fontSize=12;exitX=0.5;exitY=0;exitDx=0;exitDy=0;edgeStyle=orthogonalEdgeStyle;" edge="1" parent="9IOt9APh3hDE5E4Hf7Pu-19" source="9IOt9APh3hDE5E4Hf7Pu-47" target="9IOt9APh3hDE5E4Hf7Pu-45">
          <mxGeometry width="160" relative="1" as="geometry">
            <mxPoint x="440" y="590" as="sourcePoint" />
            <mxPoint x="600" y="590" as="targetPoint" />
          </mxGeometry>
        </mxCell>
        <mxCell id="9IOt9APh3hDE5E4Hf7Pu-53" value="" style="endArrow=block;dashed=1;endFill=0;endSize=12;html=1;rounded=0;fontSize=12;exitX=0.5;exitY=0;exitDx=0;exitDy=0;edgeStyle=orthogonalEdgeStyle;" edge="1" parent="9IOt9APh3hDE5E4Hf7Pu-19" source="9IOt9APh3hDE5E4Hf7Pu-51" target="9IOt9APh3hDE5E4Hf7Pu-45">
          <mxGeometry width="160" relative="1" as="geometry">
            <mxPoint x="720" y="640" as="sourcePoint" />
            <mxPoint x="815" y="610" as="targetPoint" />
          </mxGeometry>
        </mxCell>
        <mxCell id="9IOt9APh3hDE5E4Hf7Pu-77" value="&lt;p style=&quot;margin:0px;margin-top:4px;text-align:center;&quot;&gt;&lt;i&gt;&amp;lt;&amp;lt;Interface&amp;gt;&amp;gt;&lt;/i&gt;&lt;br&gt;&lt;b&gt;IProductsStorage&lt;/b&gt;&lt;/p&gt;&lt;hr size=&quot;1&quot; style=&quot;border-style:solid;&quot;&gt;&lt;p style=&quot;margin:0px;margin-left:4px;&quot;&gt;+ virtual void store(IProductPtr) = 0&lt;br&gt;+ virtual Vector&amp;lt;IProductPtr pop() = 0&lt;/p&gt;&lt;p style=&quot;margin:0px;margin-left:4px;&quot;&gt;+ virtual Vector&amp;lt;IProductPtr pop(CommandId) = 0&lt;/p&gt;" style="verticalAlign=top;align=left;overflow=fill;html=1;whiteSpace=wrap;" vertex="1" parent="9IOt9APh3hDE5E4Hf7Pu-19">
          <mxGeometry x="337" y="560" width="271.5" height="100" as="geometry" />
        </mxCell>
        <mxCell id="9IOt9APh3hDE5E4Hf7Pu-78" value="Use" style="endArrow=open;endSize=12;dashed=1;html=1;rounded=0;fontSize=12;edgeStyle=orthogonalEdgeStyle;" edge="1" parent="9IOt9APh3hDE5E4Hf7Pu-19" source="9IOt9APh3hDE5E4Hf7Pu-44" target="9IOt9APh3hDE5E4Hf7Pu-77">
          <mxGeometry width="160" relative="1" as="geometry">
            <mxPoint x="270" y="500" as="sourcePoint" />
            <mxPoint x="430" y="500" as="targetPoint" />
          </mxGeometry>
        </mxCell>
        <mxCell id="9IOt9APh3hDE5E4Hf7Pu-79" value="Use" style="endArrow=open;endSize=12;dashed=1;html=1;rounded=0;fontSize=12;edgeStyle=orthogonalEdgeStyle;exitX=0.5;exitY=0;exitDx=0;exitDy=0;entryX=0;entryY=0.5;entryDx=0;entryDy=0;" edge="1" parent="9IOt9APh3hDE5E4Hf7Pu-19" source="9IOt9APh3hDE5E4Hf7Pu-44" target="9IOt9APh3hDE5E4Hf7Pu-25">
          <mxGeometry width="160" relative="1" as="geometry">
            <mxPoint x="274" y="510" as="sourcePoint" />
            <mxPoint x="447" y="570" as="targetPoint" />
          </mxGeometry>
        </mxCell>
        <mxCell id="9IOt9APh3hDE5E4Hf7Pu-80" value="FigsContainer" style="swimlane;fontStyle=1;align=center;verticalAlign=top;childLayout=stackLayout;horizontal=1;startSize=26;horizontalStack=0;resizeParent=1;resizeParentMax=0;resizeLast=0;collapsible=1;marginBottom=0;whiteSpace=wrap;html=1;" vertex="1" parent="9IOt9APh3hDE5E4Hf7Pu-19">
          <mxGeometry x="57" y="690" width="253" height="138" as="geometry" />
        </mxCell>
        <mxCell id="9IOt9APh3hDE5E4Hf7Pu-81" value="- _figs: UnorderedMap&amp;lt;FigId, FigLibraryPtr&amp;gt;" style="text;strokeColor=none;fillColor=none;align=left;verticalAlign=top;spacingLeft=4;spacingRight=4;overflow=hidden;rotatable=0;points=[[0,0.5],[1,0.5]];portConstraint=eastwest;whiteSpace=wrap;html=1;" vertex="1" parent="9IOt9APh3hDE5E4Hf7Pu-80">
          <mxGeometry y="26" width="253" height="26" as="geometry" />
        </mxCell>
        <mxCell id="9IOt9APh3hDE5E4Hf7Pu-82" value="" style="line;strokeWidth=1;fillColor=none;align=left;verticalAlign=middle;spacingTop=-1;spacingLeft=3;spacingRight=3;rotatable=0;labelPosition=right;points=[];portConstraint=eastwest;strokeColor=inherit;" vertex="1" parent="9IOt9APh3hDE5E4Hf7Pu-80">
          <mxGeometry y="52" width="253" height="8" as="geometry" />
        </mxCell>
        <mxCell id="9IOt9APh3hDE5E4Hf7Pu-84" value="+ FigLibrary&amp;amp; get(FigId)" style="text;strokeColor=none;fillColor=none;align=left;verticalAlign=top;spacingLeft=4;spacingRight=4;overflow=hidden;rotatable=0;points=[[0,0.5],[1,0.5]];portConstraint=eastwest;whiteSpace=wrap;html=1;" vertex="1" parent="9IOt9APh3hDE5E4Hf7Pu-80">
          <mxGeometry y="60" width="253" height="26" as="geometry" />
        </mxCell>
        <mxCell id="9IOt9APh3hDE5E4Hf7Pu-85" value="+ void unload(FigId)" style="text;strokeColor=none;fillColor=none;align=left;verticalAlign=top;spacingLeft=4;spacingRight=4;overflow=hidden;rotatable=0;points=[[0,0.5],[1,0.5]];portConstraint=eastwest;whiteSpace=wrap;html=1;" vertex="1" parent="9IOt9APh3hDE5E4Hf7Pu-80">
          <mxGeometry y="86" width="253" height="26" as="geometry" />
        </mxCell>
        <mxCell id="9IOt9APh3hDE5E4Hf7Pu-83" value="+ void load(FigId, Buffer)" style="text;strokeColor=none;fillColor=none;align=left;verticalAlign=top;spacingLeft=4;spacingRight=4;overflow=hidden;rotatable=0;points=[[0,0.5],[1,0.5]];portConstraint=eastwest;whiteSpace=wrap;html=1;" vertex="1" parent="9IOt9APh3hDE5E4Hf7Pu-80">
          <mxGeometry y="112" width="253" height="26" as="geometry" />
        </mxCell>
        <mxCell id="9IOt9APh3hDE5E4Hf7Pu-87" value="1" style="endArrow=open;html=1;endSize=12;startArrow=diamondThin;startSize=14;startFill=1;edgeStyle=orthogonalEdgeStyle;align=left;verticalAlign=bottom;rounded=0;fontSize=12;" edge="1" parent="9IOt9APh3hDE5E4Hf7Pu-19" source="9IOt9APh3hDE5E4Hf7Pu-44" target="9IOt9APh3hDE5E4Hf7Pu-80">
          <mxGeometry x="-1" y="3" relative="1" as="geometry">
            <mxPoint x="-220" y="680" as="sourcePoint" />
            <mxPoint x="-60" y="680" as="targetPoint" />
            <Array as="points">
              <mxPoint x="264" y="670" />
              <mxPoint x="184" y="670" />
            </Array>
          </mxGeometry>
        </mxCell>
        <mxCell id="9IOt9APh3hDE5E4Hf7Pu-88" value="LibrariesContainer" style="swimlane;fontStyle=1;align=center;verticalAlign=top;childLayout=stackLayout;horizontal=1;startSize=26;horizontalStack=0;resizeParent=1;resizeParentMax=0;resizeLast=0;collapsible=1;marginBottom=0;whiteSpace=wrap;html=1;" vertex="1" parent="9IOt9APh3hDE5E4Hf7Pu-19">
          <mxGeometry x="378.5" y="690" width="331.5" height="138" as="geometry" />
        </mxCell>
        <mxCell id="9IOt9APh3hDE5E4Hf7Pu-89" value="- _libraries: UnorderedMap&amp;lt;LibraryId, DynamicLibraryPtr&amp;gt;" style="text;strokeColor=none;fillColor=none;align=left;verticalAlign=top;spacingLeft=4;spacingRight=4;overflow=hidden;rotatable=0;points=[[0,0.5],[1,0.5]];portConstraint=eastwest;whiteSpace=wrap;html=1;" vertex="1" parent="9IOt9APh3hDE5E4Hf7Pu-88">
          <mxGeometry y="26" width="331.5" height="26" as="geometry" />
        </mxCell>
        <mxCell id="9IOt9APh3hDE5E4Hf7Pu-90" value="" style="line;strokeWidth=1;fillColor=none;align=left;verticalAlign=middle;spacingTop=-1;spacingLeft=3;spacingRight=3;rotatable=0;labelPosition=right;points=[];portConstraint=eastwest;strokeColor=inherit;" vertex="1" parent="9IOt9APh3hDE5E4Hf7Pu-88">
          <mxGeometry y="52" width="331.5" height="8" as="geometry" />
        </mxCell>
        <mxCell id="9IOt9APh3hDE5E4Hf7Pu-91" value="+ DynamicLibrary&amp;amp; get(LibraryId)" style="text;strokeColor=none;fillColor=none;align=left;verticalAlign=top;spacingLeft=4;spacingRight=4;overflow=hidden;rotatable=0;points=[[0,0.5],[1,0.5]];portConstraint=eastwest;whiteSpace=wrap;html=1;" vertex="1" parent="9IOt9APh3hDE5E4Hf7Pu-88">
          <mxGeometry y="60" width="331.5" height="26" as="geometry" />
        </mxCell>
        <mxCell id="9IOt9APh3hDE5E4Hf7Pu-92" value="+ void unload(LibraryId)" style="text;strokeColor=none;fillColor=none;align=left;verticalAlign=top;spacingLeft=4;spacingRight=4;overflow=hidden;rotatable=0;points=[[0,0.5],[1,0.5]];portConstraint=eastwest;whiteSpace=wrap;html=1;" vertex="1" parent="9IOt9APh3hDE5E4Hf7Pu-88">
          <mxGeometry y="86" width="331.5" height="26" as="geometry" />
        </mxCell>
        <mxCell id="9IOt9APh3hDE5E4Hf7Pu-93" value="+ void load(LibraryId, Buffer)" style="text;strokeColor=none;fillColor=none;align=left;verticalAlign=top;spacingLeft=4;spacingRight=4;overflow=hidden;rotatable=0;points=[[0,0.5],[1,0.5]];portConstraint=eastwest;whiteSpace=wrap;html=1;" vertex="1" parent="9IOt9APh3hDE5E4Hf7Pu-88">
          <mxGeometry y="112" width="331.5" height="26" as="geometry" />
        </mxCell>
        <mxCell id="9IOt9APh3hDE5E4Hf7Pu-94" value="1" style="endArrow=open;html=1;endSize=12;startArrow=diamondThin;startSize=14;startFill=1;edgeStyle=orthogonalEdgeStyle;align=left;verticalAlign=bottom;rounded=0;fontSize=12;" edge="1" parent="9IOt9APh3hDE5E4Hf7Pu-19" source="9IOt9APh3hDE5E4Hf7Pu-44" target="9IOt9APh3hDE5E4Hf7Pu-88">
          <mxGeometry x="-1" y="3" relative="1" as="geometry">
            <mxPoint x="274" y="530" as="sourcePoint" />
            <mxPoint x="194" y="700" as="targetPoint" />
            <Array as="points">
              <mxPoint x="264" y="670" />
              <mxPoint x="544" y="670" />
            </Array>
          </mxGeometry>
        </mxCell>
      </root>
    </mxGraphModel>
  </diagram>
</mxfile>
